{"glyphs":{":":{"x_min":0,"x_max":293,"ha":293,"o":"m 98 290 l 98 401 l 190 445 l 195 445 l 195 334 l 103 290 z m 98 -20 l 98 92 l 190 136 l 195 136 l 195 24 l 103 -20 z"},"$":{"x_min":0,"x_max":649,"ha":649,"o":"m 296 -117 l 296 -19 q 202 -10 144 51 q 78 121 78 225 l 171 269 l 176 269 l 176 225 q 176 161 211 119 q 245 79 296 70 l 296 368 q 224 376 171 425 q 122 471 122 554 l 122 601 l 296 735 l 296 830 l 348 854 l 353 854 l 353 754 q 425 744 467 710 q 527 661 527 565 l 435 521 l 430 521 l 430 565 q 430 625 398 653 q 378 670 353 676 l 353 454 q 449 448 505 399 q 571 342 571 226 l 571 171 l 353 2 l 353 -93 l 301 -117 z m 296 457 l 296 677 q 268 670 249 650 q 220 620 220 565 q 220 512 242 487 q 263 464 296 457 z m 353 365 l 353 71 q 404 79 438 119 q 474 159 474 225 q 474 288 445 321 q 412 358 353 365 z"},"?":{"x_min":0,"x_max":640,"ha":640,"o":"m 320 757 q 434 757 500 686 q 566 616 566 513 q 566 397 406 289 q 363 260 362 222 l 285 185 l 280 185 q 280 278 359 332 q 470 407 470 513 q 470 576 434 619 q 390 669 320 669 q 249 669 206 619 q 171 578 171 521 q 171 489 190 456 l 108 417 l 103 417 q 73 469 73 566 z m 271 -20 l 271 92 l 364 136 l 369 136 l 369 24 l 276 -20 z"},"<":{"x_min":0,"x_max":653,"ha":653,"o":"m 73 324 l 73 329 l 113 414 l 532 593 l 556 543 l 556 538 l 180 384 l 556 225 l 556 220 l 516 136 z"},"'":{"x_min":0,"x_max":228,"ha":228,"o":"m 149 757 l 154 757 l 154 521 l 78 484 l 73 484 l 73 721 z"},"=":{"x_min":0,"x_max":593,"ha":593,"o":"m 73 413 l 73 418 l 113 502 l 520 502 l 520 497 l 480 413 z m 73 235 l 73 240 l 113 324 l 520 324 l 520 319 l 480 235 z"},"a":{"x_min":0,"x_max":527,"ha":527,"o":"m 251 58 q 303 58 328 87 q 356 122 356 174 q 356 233 325 262 q 294 289 251 289 q 200 289 175 259 q 146 224 146 174 q 146 113 178 84 q 209 58 251 58 z m 251 -20 q 161 -13 109 27 q 49 75 49 172 l 49 209 l 251 366 q 313 361 356 341 l 356 365 q 356 424 325 453 q 294 479 251 479 q 204 479 175 450 l 148 477 l 251 557 q 344 550 394 510 q 454 460 454 365 l 454 24 l 361 -20 l 356 -20 l 356 62 z"},"L":{"x_min":0,"x_max":531,"ha":531,"o":"m 24 0 l 24 5 l 52 63 l 98 63 l 98 713 l 190 757 l 195 757 l 195 63 l 529 63 l 529 59 l 501 0 z"},"3":{"x_min":0,"x_max":649,"ha":649,"o":"m 325 -20 q 211 -20 144 51 q 78 121 78 225 l 171 269 l 176 269 l 176 225 q 176 160 211 119 q 253 68 325 68 q 395 68 438 119 q 474 158 474 225 q 474 287 445 321 q 405 367 324 367 q 257 367 216 345 l 396 674 l 122 674 l 122 679 l 149 737 l 529 737 l 529 732 l 371 452 q 446 452 505 399 q 571 339 571 226 l 571 171 z"},";":{"x_min":0,"x_max":291,"ha":291,"o":"m 166 136 l 171 136 q 211 86 218 -6 l 104 -140 l 83 -115 q 126 -59 126 3 q 126 58 73 92 z m 98 290 l 98 401 l 190 445 l 195 445 l 195 334 l 103 290 z"},"J":{"x_min":0,"x_max":630,"ha":630,"o":"m 286 -20 q 174 -20 105 51 q 39 119 39 225 l 132 269 l 137 269 l 137 225 q 137 159 172 119 q 215 68 286 68 q 356 68 399 119 q 435 159 435 225 l 435 648 l 204 648 l 204 653 l 243 737 l 532 737 l 532 171 z"},"V":{"x_min":0,"x_max":582,"ha":582,"o":"m 251 -20 l 2 717 l 87 757 l 92 757 l 308 114 l 522 757 l 527 757 l 579 732 l 341 21 l 256 -20 z"},"\"":{"x_min":0,"x_max":365,"ha":365,"o":"m 287 757 l 292 757 l 292 521 l 215 484 l 210 484 l 210 721 z m 149 757 l 154 757 l 154 521 l 78 484 l 73 484 l 73 721 z"},"7":{"x_min":0,"x_max":588,"ha":588,"o":"m 142 -20 l 242 255 l 67 255 l 67 260 l 95 318 l 265 318 l 394 674 l 59 674 l 59 679 l 86 737 l 515 737 l 515 732 l 362 318 l 529 318 l 529 313 l 501 255 l 338 255 l 256 32 l 146 -20 z"},"S":{"x_min":0,"x_max":649,"ha":649,"o":"m 325 -20 q 211 -20 144 51 q 78 121 78 225 l 171 269 l 176 269 l 176 225 q 176 160 211 119 q 253 68 325 68 q 395 68 438 119 q 474 159 474 225 q 474 288 445 321 q 405 367 324 367 q 234 367 171 425 q 122 471 122 554 l 122 601 l 325 757 q 417 750 467 710 q 527 661 527 565 l 435 521 l 430 521 l 430 565 q 430 625 398 653 q 367 680 325 680 q 277 680 249 650 q 220 620 220 565 q 220 512 242 487 q 271 455 324 455 q 441 455 505 399 q 571 342 571 226 l 571 171 z"},"}":{"x_min":0,"x_max":403,"ha":403,"o":"m 24 -117 l 24 -29 q 98 -29 138 21 q 173 64 173 127 l 173 610 q 173 675 138 716 q 96 766 24 767 l 24 854 q 136 854 205 784 q 271 716 271 610 l 271 413 l 378 413 l 378 408 l 339 324 l 271 324 l 271 73 z"},"Z":{"x_min":0,"x_max":619,"ha":619,"o":"m 73 0 l 73 5 l 196 255 l 73 255 l 73 260 l 101 318 l 227 318 l 401 674 l 80 674 l 80 679 l 107 737 l 536 737 l 536 732 l 331 318 l 536 318 l 536 313 l 508 255 l 300 255 l 205 63 l 545 63 l 545 59 l 518 0 z"},"x":{"x_min":0,"x_max":486,"ha":486,"o":"m 90 -20 l 39 5 l 196 251 l 39 516 l 125 557 l 129 557 l 255 344 l 391 557 l 396 557 l 447 532 l 290 286 l 447 21 l 362 -20 l 357 -20 l 231 193 l 95 -20 z"},")":{"x_min":0,"x_max":369,"ha":369,"o":"m 24 -117 l 24 -29 q 98 -29 138 21 q 173 64 173 127 l 173 610 q 173 675 138 716 q 96 766 24 767 l 24 854 q 136 854 205 784 q 271 716 271 610 l 271 73 z"},"&":{"x_min":0,"x_max":840,"ha":840,"o":"m 485 209 l 346 375 q 270 374 211 317 q 176 283 176 222 q 176 161 211 119 q 250 72 322 72 q 374 72 485 209 z m 405 446 l 553 270 l 701 420 l 706 420 l 757 396 l 588 229 l 762 21 l 677 -20 l 672 -20 l 519 167 l 325 -20 q 209 -20 143 59 q 79 134 78 258 l 240 382 q 201 397 171 425 q 122 471 122 554 l 122 601 l 325 757 q 417 750 467 710 q 527 661 527 565 l 435 521 l 430 521 l 430 569 q 430 624 398 653 q 368 680 325 680 q 277 680 249 650 q 220 620 220 565 q 220 511 242 487 q 272 455 319 451 q 366 446 405 446 z"},"_":{"x_min":0,"x_max":593,"ha":593,"o":"m 73 -200 l 73 -195 l 113 -111 l 520 -111 l 520 -116 l 480 -200 z"},"v":{"x_min":0,"x_max":462,"ha":462,"o":"m 191 -20 l 2 517 l 87 557 l 92 557 l 249 107 l 405 557 l 410 557 l 460 533 l 280 21 l 196 -20 z"},"O":{"x_min":0,"x_max":688,"ha":688,"o":"m 344 68 q 414 68 458 119 q 493 159 493 225 l 493 513 q 493 578 458 619 q 415 669 344 669 q 273 669 230 619 q 195 578 195 513 l 195 225 q 195 160 230 119 q 273 68 344 68 z m 344 -20 q 233 -20 164 51 q 98 119 98 225 l 98 566 l 344 757 q 456 757 525 686 q 591 619 591 513 l 591 171 z"},"(":{"x_min":0,"x_max":369,"ha":369,"o":"m 344 -117 q 233 -117 164 -46 q 98 21 98 127 l 98 664 l 344 854 l 344 767 q 271 766 230 716 q 195 673 195 610 l 195 127 q 195 62 230 21 q 273 -29 344 -29 z"},"C":{"x_min":0,"x_max":688,"ha":688,"o":"m 344 -20 q 233 -20 164 51 q 98 119 98 225 l 98 566 l 344 757 q 456 757 525 686 q 591 619 591 513 l 498 469 l 493 469 l 493 513 q 493 578 458 619 q 415 669 344 669 q 273 669 230 619 q 195 578 195 513 l 195 225 q 195 160 230 119 q 273 68 344 68 q 414 68 458 119 q 493 159 493 225 l 586 269 l 591 269 l 591 171 z"},"W":{"x_min":0,"x_max":1084,"ha":1084,"o":"m 344 -20 q 233 -20 164 51 q 98 119 98 225 l 98 712 l 190 757 l 195 757 l 195 225 q 195 159 230 119 q 274 68 344 68 q 416 68 458 119 q 493 161 493 225 l 493 712 l 493 713 l 586 757 l 591 757 l 591 225 q 591 159 626 119 q 669 68 740 68 q 812 68 854 119 q 889 161 889 225 l 889 713 l 981 757 l 986 757 l 986 171 l 740 -20 q 627 -20 559 51 q 532 79 516 113 z"},"A":{"x_min":0,"x_max":688,"ha":688,"o":"m 24 255 l 24 260 l 52 318 l 98 318 l 98 566 l 344 757 q 456 757 525 686 q 591 619 591 513 l 591 25 l 498 -20 l 493 -20 l 493 513 q 493 578 458 619 q 415 669 344 669 q 272 669 230 619 q 195 577 195 513 l 195 318 l 425 318 l 425 313 l 397 255 l 195 255 l 195 24 l 103 -20 l 98 -20 l 98 255 z"},"f":{"x_min":0,"x_max":445,"ha":445,"o":"m 98 -20 l 98 369 l 24 369 l 24 374 l 52 433 l 98 433 l 98 600 l 300 757 q 394 750 442 710 l 374 653 q 340 680 300 680 q 253 680 224 650 q 195 621 195 565 l 195 433 l 371 433 l 371 428 l 343 369 l 195 369 l 195 24 l 103 -20 z"},"Q":{"x_min":0,"x_max":688,"ha":688,"o":"m 344 -20 q 233 -20 164 51 q 98 119 98 225 l 98 566 l 344 757 q 456 757 525 686 q 591 619 591 513 l 591 171 l 509 107 l 569 21 l 483 -20 l 479 -20 l 432 48 z m 479 151 q 493 183 493 225 l 493 513 q 493 578 458 619 q 415 669 344 669 q 274 669 230 619 q 195 578 195 513 l 195 225 q 195 160 230 119 q 273 68 344 68 q 379 68 408 81 l 324 202 l 410 243 l 415 243 z"},"w":{"x_min":0,"x_max":859,"ha":859,"o":"m 276 -20 q 184 -13 134 27 q 73 77 73 172 l 73 513 l 166 557 l 171 557 l 171 172 q 171 111 203 84 q 234 58 276 58 q 322 58 352 87 q 381 116 381 172 l 381 513 l 474 557 l 479 557 l 479 172 q 479 111 510 84 q 542 58 583 58 q 629 58 660 87 q 688 116 688 172 l 688 513 l 781 557 l 786 557 l 786 137 l 583 -20 q 490 -13 441 27 q 416 48 401 77 z"},"-":{"x_min":0,"x_max":593,"ha":593,"o":"m 73 324 l 73 329 l 113 413 l 520 413 l 520 408 l 480 324 z"},"E":{"x_min":0,"x_max":553,"ha":553,"o":"m 24 0 l 24 5 l 52 63 l 98 63 l 98 255 l 24 255 l 24 260 l 52 318 l 98 318 l 98 713 l 149 737 l 459 737 l 459 732 l 431 674 l 195 674 l 195 318 l 425 318 l 425 313 l 397 255 l 195 255 l 195 63 l 529 63 l 529 59 l 501 0 z"},"s":{"x_min":0,"x_max":522,"ha":522,"o":"m 261 -20 q 169 -13 119 27 q 59 77 59 172 l 151 216 l 156 216 l 156 172 q 156 113 188 84 q 218 58 261 58 q 308 58 337 87 q 366 117 366 172 q 366 227 333 248 q 305 265 261 265 q 146 265 102 318 q 79 345 79 416 l 261 557 q 333 555 381 514 q 420 480 429 426 l 336 382 l 332 382 l 332 396 q 332 431 317 449 q 292 479 250 479 q 208 479 187 453 q 172 434 172 406 q 172 375 198 356 q 213 346 261 346 q 366 346 412 306 q 464 260 464 137 z"},">":{"x_min":0,"x_max":653,"ha":653,"o":"m 580 405 l 580 400 l 540 315 l 122 136 l 98 186 l 98 191 l 473 345 l 98 504 l 98 509 l 138 593 z"},"l":{"x_min":0,"x_max":293,"ha":293,"o":"m 98 -20 l 98 713 l 190 757 l 195 757 l 195 24 l 103 -20 z"},"8":{"x_min":0,"x_max":649,"ha":649,"o":"m 325 68 q 395 68 438 119 q 474 159 474 225 q 474 288 445 321 q 403 367 324 367 q 261 367 211 317 q 176 283 176 222 q 176 160 211 119 q 253 68 325 68 z m 325 -20 q 209 -20 143 59 q 79 134 78 257 l 240 382 q 201 397 171 425 q 122 471 122 554 l 122 600 l 325 757 q 417 750 467 710 q 527 661 527 540 l 405 446 q 467 433 505 399 q 571 340 571 226 l 571 171 z m 324 455 q 374 455 402 484 q 430 514 430 569 q 430 625 398 653 q 368 680 325 680 q 277 680 249 650 q 220 620 220 565 q 220 511 242 487 q 272 455 324 455 z"},"\\":{"x_min":0,"x_max":476,"ha":476,"o":"m 396 -68 l 5 772 l 74 806 l 79 806 l 471 -35 l 401 -68 z"},"e":{"x_min":0,"x_max":552,"ha":552,"o":"m 276 -20 q 184 -13 134 27 q 73 77 73 172 l 73 400 l 276 557 q 368 550 418 510 q 479 460 479 365 l 178 122 q 187 98 203 84 q 234 58 275 58 q 317 58 352 87 q 381 112 381 172 l 474 216 l 479 216 l 479 137 z m 171 194 l 381 364 q 381 426 349 453 q 317 479 276 479 q 229 479 200 450 q 171 420 171 365 z"},"b":{"x_min":0,"x_max":576,"ha":576,"o":"m 300 58 q 347 58 376 87 q 405 117 405 172 l 405 365 q 405 424 374 453 q 344 479 300 479 q 253 479 224 450 q 195 420 195 365 l 195 172 q 195 111 226 84 q 257 58 300 58 z m 300 -20 q 207 -13 158 27 q 98 78 98 172 l 98 713 l 190 757 l 195 757 l 195 475 l 300 557 q 393 550 442 510 q 503 460 503 365 l 503 137 z"},"%":{"x_min":0,"x_max":968,"ha":968,"o":"m 276 757 q 361 755 417 700 q 476 644 477 520 l 274 363 q 188 365 133 420 q 74 477 73 601 z m 692 -20 q 607 -18 551 37 q 493 94 492 218 l 694 374 q 779 372 835 317 q 894 261 895 137 z m 693 58 q 741 58 770 87 q 798 118 798 177 q 798 241 767 270 q 737 296 693 297 q 646 297 617 267 q 588 237 588 177 q 588 113 620 84 q 649 58 693 58 z m 345 -20 l 276 14 l 622 757 l 627 757 l 696 724 l 350 -20 z m 275 440 q 323 440 351 470 q 380 500 380 560 q 380 624 348 653 q 319 679 275 680 q 227 680 199 650 q 170 620 170 560 q 170 496 202 467 q 231 441 275 440 z"},"m":{"x_min":0,"x_max":859,"ha":859,"o":"m 73 -20 l 73 400 l 276 557 q 369 550 418 510 q 443 489 458 460 l 583 557 q 676 550 726 510 q 786 460 786 365 l 786 24 l 693 -20 l 688 -20 l 688 365 q 688 426 657 453 q 625 479 583 479 q 538 479 507 450 q 479 421 479 365 l 479 24 l 386 -20 l 381 -20 l 381 365 q 381 426 349 453 q 317 479 276 479 q 230 479 200 450 q 171 421 171 365 l 171 24 l 78 -20 z"},"#":{"x_min":0,"x_max":668,"ha":668,"o":"m 224 108 l 219 108 l 219 254 l 73 254 l 73 259 l 113 343 l 219 343 l 219 396 l 73 396 l 73 400 l 113 484 l 219 484 l 219 590 l 303 630 l 308 630 l 308 484 l 360 484 l 360 590 l 444 630 l 449 630 l 449 484 l 595 484 l 595 479 l 555 396 l 449 396 l 449 343 l 595 343 l 595 338 l 555 254 l 449 254 l 449 148 l 365 108 l 360 108 l 360 254 l 308 254 l 308 148 z m 308 343 l 360 343 l 360 396 l 308 396 z"},",":{"x_min":0,"x_max":291,"ha":291,"o":"m 166 136 l 171 136 q 211 86 218 -6 l 104 -140 l 83 -115 q 126 -59 126 3 q 126 58 73 92 z"},"n":{"x_min":0,"x_max":552,"ha":552,"o":"m 73 -20 l 73 400 l 276 557 q 368 550 418 510 q 479 460 479 365 l 479 24 l 386 -20 l 381 -20 l 381 365 q 381 426 349 453 q 317 479 276 479 q 230 479 200 450 q 171 421 171 365 l 171 24 l 78 -20 z"},"h":{"x_min":0,"x_max":576,"ha":576,"o":"m 98 -20 l 98 713 l 190 757 l 195 757 l 195 475 l 300 557 q 393 550 442 510 q 503 460 503 365 l 503 24 l 410 -20 l 405 -20 l 405 365 q 405 421 374 453 q 346 479 300 479 q 253 479 224 449 q 195 419 195 365 l 195 24 l 103 -20 z"},"z":{"x_min":0,"x_max":527,"ha":527,"o":"m 59 0 l 59 5 l 163 190 l 59 190 l 59 195 l 86 254 l 199 254 l 322 474 l 68 474 l 68 479 l 96 537 l 459 537 l 459 532 l 303 254 l 459 254 l 459 249 l 431 190 l 268 190 l 196 63 l 468 63 l 468 59 l 440 0 z"},"B":{"x_min":0,"x_max":636,"ha":636,"o":"m 98 -20 l 98 713 l 190 757 l 195 757 l 195 49 q 315 70 393 128 q 486 199 486 281 q 486 353 396 401 q 348 428 306 439 q 413 500 413 577 q 413 626 341 661 q 275 694 200 704 l 312 757 l 316 757 q 390 739 433 702 q 490 654 490 589 q 490 532 425 481 q 469 469 507 438 q 577 381 577 302 q 577 184 456 101 q 308 2 103 -20 z"},"K":{"x_min":0,"x_max":666,"ha":666,"o":"m 98 -20 l 98 713 l 190 757 l 195 757 l 195 173 q 263 196 324 235 l 249 342 l 335 383 l 340 383 l 401 294 q 469 379 469 614 l 469 713 l 562 757 l 566 757 l 566 616 q 566 374 434 249 l 593 21 l 507 -20 l 502 -20 l 356 189 q 281 147 195 125 l 195 24 l 103 -20 z"},"R":{"x_min":0,"x_max":651,"ha":651,"o":"m 98 -20 l 98 713 l 190 757 l 195 757 l 195 173 q 260 194 324 235 l 249 342 l 335 383 l 340 383 l 401 294 q 475 366 475 464 q 475 550 400 619 q 335 676 201 704 l 312 757 l 317 757 q 414 738 482 669 q 566 586 566 465 q 566 341 438 243 l 593 21 l 507 -20 l 502 -20 l 355 189 q 281 148 195 125 l 195 24 l 103 -20 z"},"T":{"x_min":0,"x_max":521,"ha":521,"o":"m 211 -20 l 211 674 l 2 674 l 2 679 l 30 737 l 518 737 l 518 732 l 490 674 l 309 674 l 309 24 l 216 -20 z"},"P":{"x_min":0,"x_max":625,"ha":625,"o":"m 98 -20 l 98 713 l 190 757 l 195 757 l 195 173 q 290 202 377 271 q 475 349 475 464 q 475 554 400 619 q 332 677 201 704 l 312 757 l 317 757 q 414 738 482 669 q 566 587 566 465 q 566 327 409 222 q 312 157 195 125 l 195 24 l 103 -20 z"},"|":{"x_min":0,"x_max":325,"ha":325,"o":"m 122 -117 l 122 818 l 198 854 l 203 854 l 203 -81 l 127 -117 z"},"t":{"x_min":0,"x_max":366,"ha":366,"o":"m 134 -20 l 134 474 l 2 474 l 2 479 l 30 537 l 134 537 l 134 713 l 227 757 l 232 757 l 232 537 l 364 537 l 364 532 l 336 474 l 232 474 l 232 24 l 139 -20 z"},"M":{"x_min":0,"x_max":1084,"ha":1084,"o":"m 98 -20 l 98 566 l 344 757 q 457 757 525 686 q 552 658 568 624 l 740 757 q 851 757 920 686 q 986 619 986 513 l 986 25 l 894 -20 l 889 -20 l 889 513 q 889 578 854 619 q 810 669 740 669 q 668 669 626 619 q 591 577 591 513 l 591 25 l 591 24 l 498 -20 l 493 -20 l 493 513 q 493 578 458 619 q 415 669 344 669 q 272 669 230 619 q 195 577 195 513 l 195 24 l 103 -20 z"},"g":{"x_min":0,"x_max":552,"ha":552,"o":"m 352 87 q 381 111 381 172 l 381 365 q 381 426 349 453 q 317 479 276 479 q 229 479 200 450 q 171 420 171 365 l 171 172 q 171 111 203 84 q 235 58 275 58 q 314 58 352 87 z m 276 -20 q 184 -13 134 27 q 73 77 73 172 l 73 400 l 276 557 q 368 550 418 510 q 479 461 479 365 l 479 -63 l 276 -220 q 174 -213 135 -174 l 203 -116 q 231 -143 275 -143 q 321 -143 352 -113 q 381 -85 381 -28 l 381 62 z"},"j":{"x_min":0,"x_max":293,"ha":293,"o":"m 31 -187 q -7 -144 -7 -143 q 40 -142 69 -113 q 98 -83 98 -28 l 98 513 l 190 557 l 195 557 l 195 -60 z m 195 757 l 195 646 l 103 602 l 98 602 l 98 713 l 190 757 z"},"i":{"x_min":0,"x_max":293,"ha":293,"o":"m 98 -20 l 98 513 l 190 557 l 195 557 l 195 24 l 103 -20 z m 195 757 l 195 646 l 103 602 l 98 602 l 98 713 l 190 757 z"},"y":{"x_min":0,"x_max":576,"ha":576,"o":"m 276 -20 q 184 -13 134 27 q 73 77 73 172 l 73 513 l 166 557 l 171 557 l 171 172 q 171 111 203 84 q 234 58 275 58 q 317 58 352 87 q 381 112 381 172 l 381 513 l 474 557 l 479 557 l 479 -63 l 276 -220 q 174 -213 135 -174 l 203 -116 q 232 -143 275 -143 q 319 -143 352 -113 q 381 -87 381 -28 l 381 62 z"},"@":{"x_min":0,"x_max":596,"ha":596,"o":"m 425 -20 q 334 -13 283 27 q 222 75 222 172 l 222 209 l 425 366 q 425 425 393 453 q 362 479 320 479 q 267 479 218 433 q 171 389 171 312 l 171 24 q 171 -40 206 -82 q 248 -132 320 -132 q 390 -132 434 -82 l 460 -111 l 320 -220 q 208 -220 139 -149 q 73 -82 73 24 l 73 366 l 320 557 q 412 550 462 510 q 522 460 522 365 l 522 24 l 430 -20 z m 425 58 l 425 289 q 373 288 349 259 q 320 224 320 174 q 320 113 352 84 q 382 58 425 58 z"},".":{"x_min":0,"x_max":293,"ha":293,"o":"m 98 -20 l 98 92 l 190 136 l 195 136 l 195 24 l 103 -20 z"},"p":{"x_min":0,"x_max":576,"ha":576,"o":"m 376 87 q 405 113 405 172 l 405 365 q 405 426 373 453 q 341 479 300 479 q 253 479 224 450 q 195 420 195 365 l 195 172 q 195 111 227 84 q 259 58 300 58 q 341 58 376 87 z m 300 -20 q 238 -15 195 4 l 195 -176 l 103 -220 l 98 -220 l 98 400 l 300 557 q 393 550 442 510 q 503 460 503 365 l 503 137 z"},"X":{"x_min":0,"x_max":624,"ha":624,"o":"m 105 -20 l 100 -20 l 49 5 l 266 351 l 49 716 l 134 757 l 139 757 l 324 445 l 519 757 l 524 757 l 575 732 l 359 386 l 575 21 l 490 -20 l 485 -20 l 300 292 z"},"*":{"x_min":0,"x_max":578,"ha":578,"o":"m 333 757 l 333 611 l 425 664 l 502 611 l 504 607 l 377 534 l 504 460 l 502 457 l 425 403 l 333 457 l 333 350 l 249 311 l 244 311 l 244 457 l 152 403 l 76 457 l 73 460 l 200 534 l 73 607 l 76 611 l 152 664 l 244 611 l 244 717 l 328 757 z"},"Y":{"x_min":0,"x_max":624,"ha":624,"o":"m 252 -20 l 252 255 l 112 255 l 112 260 l 140 318 l 228 318 l 49 716 l 134 757 l 139 757 l 324 337 l 519 757 l 524 757 l 575 732 l 377 318 l 512 318 l 512 313 l 484 255 l 350 255 l 350 24 l 257 -20 z"},"c":{"x_min":0,"x_max":552,"ha":552,"o":"m 276 -20 q 184 -13 134 27 q 73 77 73 172 l 73 400 l 276 557 q 368 550 418 510 q 479 460 479 365 l 386 321 l 381 321 l 381 365 q 381 424 349 453 q 319 479 276 479 q 228 479 200 450 q 171 420 171 365 l 171 172 q 171 113 203 84 q 233 58 276 58 q 324 58 352 87 q 381 117 381 172 l 474 216 l 479 216 l 479 137 z"},"!":{"x_min":0,"x_max":293,"ha":293,"o":"m 98 -20 l 98 92 l 190 136 l 195 136 l 195 24 l 103 -20 z m 190 757 l 195 757 l 195 249 l 103 205 l 98 205 l 98 713 z"},"/":{"x_min":0,"x_max":476,"ha":476,"o":"m 74 -68 l 5 -35 l 396 806 l 401 806 l 471 772 l 79 -68 z"},"[":{"x_min":0,"x_max":422,"ha":422,"o":"m 98 -117 l 98 811 l 190 854 l 397 854 l 397 850 l 368 786 l 195 786 l 195 -49 l 397 -49 l 397 -54 l 368 -117 z"},"6":{"x_min":0,"x_max":688,"ha":688,"o":"m 344 -20 q 230 -20 164 51 q 98 121 98 225 l 98 566 l 344 757 q 462 757 525 691 q 588 625 588 556 l 498 513 l 493 513 q 493 578 458 619 q 414 669 344 669 q 274 669 230 619 q 195 578 195 513 l 195 354 l 344 470 q 458 470 525 399 q 591 329 591 226 l 591 171 z m 344 68 q 413 68 458 119 q 493 158 493 225 q 493 291 458 332 q 415 382 344 382 q 274 382 230 332 q 195 291 195 225 q 195 160 230 119 q 273 68 344 68 z"},"r":{"x_min":0,"x_max":503,"ha":503,"o":"m 73 -20 l 73 400 l 276 557 q 368 550 418 510 q 479 460 479 365 l 386 321 l 381 321 l 381 365 q 381 426 349 453 q 317 479 275 479 q 233 479 200 450 q 171 424 171 365 l 171 24 l 78 -20 z"},"2":{"x_min":0,"x_max":651,"ha":651,"o":"m 73 0 l 73 5 l 102 63 l 360 317 q 476 428 476 513 q 476 575 439 619 q 398 669 326 669 q 257 669 212 619 q 177 580 177 521 q 177 488 196 456 l 114 417 l 109 417 q 79 469 79 566 l 326 757 q 439 757 506 686 q 572 616 572 523 q 572 393 438 283 l 183 63 l 573 63 l 573 59 l 545 0 z"},"{":{"x_min":0,"x_max":403,"ha":403,"o":"m 378 -117 q 267 -117 198 -46 q 132 21 132 127 l 132 324 l 24 324 l 24 329 l 64 413 l 132 413 l 132 664 l 378 854 l 378 767 q 305 766 265 716 q 229 673 229 610 l 229 127 q 229 62 265 21 q 307 -29 378 -29 z"},"9":{"x_min":0,"x_max":688,"ha":688,"o":"m 344 -20 q 227 -20 164 46 q 101 112 101 182 l 190 225 l 195 225 q 195 160 230 119 q 274 68 344 68 q 414 68 458 119 q 493 159 493 225 l 493 383 l 344 268 q 230 268 164 338 q 98 408 98 512 l 98 566 l 344 757 q 458 757 525 686 q 591 616 591 513 l 591 171 z m 344 355 q 414 355 458 406 q 493 446 493 513 q 493 578 458 619 q 415 669 344 669 q 275 669 230 619 q 195 579 195 513 q 195 447 230 406 q 273 355 344 355 z"}," ":{"x_min":0,"x_max":391,"ha":391,"o":""},"I":{"x_min":0,"x_max":293,"ha":293,"o":"m 98 -20 l 98 713 l 190 757 l 195 757 l 195 24 l 103 -20 z"},"H":{"x_min":0,"x_max":679,"ha":679,"o":"m 483 -20 l 483 713 l 576 757 l 581 757 l 581 24 l 488 -20 z m 98 -20 l 98 255 l 24 255 l 24 260 l 52 318 l 98 318 l 98 713 l 190 757 l 195 757 l 195 318 l 425 318 l 425 313 l 397 255 l 195 255 l 195 24 l 103 -20 z"},"4":{"x_min":0,"x_max":580,"ha":580,"o":"m 360 -20 l 360 255 l 2 255 l 2 260 l 30 318 l 360 713 l 453 757 l 458 757 l 458 318 l 531 318 l 531 313 l 503 255 l 458 255 l 458 24 l 365 -20 z m 360 318 l 360 638 l 114 318 z"},"~":{"x_min":0,"x_max":619,"ha":619,"o":"m 100 285 l 95 285 q 73 314 73 372 l 189 461 q 307 461 352 399 q 410 319 434 319 q 461 319 461 359 q 461 390 438 413 l 520 453 l 524 453 q 546 423 546 366 l 430 276 q 312 276 268 338 q 209 418 185 418 q 158 418 158 378 q 158 348 182 324 z"},"D":{"x_min":0,"x_max":653,"ha":653,"o":"m 98 -20 l 98 713 l 190 757 l 195 757 l 195 49 q 312 92 389 159 q 501 255 501 398 q 501 523 410 608 q 344 668 201 704 l 312 757 l 317 757 q 432 727 500 655 q 595 555 595 415 q 595 226 425 107 q 287 11 103 -20 z"},"^":{"x_min":0,"x_max":675,"ha":675,"o":"m 377 757 l 602 531 l 517 491 l 512 491 l 329 673 l 128 491 l 124 491 l 73 515 l 288 717 l 372 757 z"},"0":{"x_min":0,"x_max":688,"ha":688,"o":"m 344 68 q 414 68 458 119 q 493 159 493 225 l 493 513 q 493 578 458 619 q 415 669 344 669 q 273 669 230 619 q 195 578 195 513 l 195 225 q 195 160 230 119 q 273 68 344 68 z m 344 -20 q 233 -20 164 51 q 98 119 98 225 l 98 566 l 344 757 q 456 757 525 686 q 591 619 591 513 l 591 171 z"},"F":{"x_min":0,"x_max":518,"ha":518,"o":"m 98 -20 l 98 255 l 24 255 l 24 260 l 52 318 l 98 318 l 98 713 l 149 737 l 459 737 l 459 732 l 431 674 l 195 674 l 195 318 l 425 318 l 425 313 l 397 255 l 195 255 l 195 24 l 103 -20 z"},"`":{"x_min":0,"x_max":316,"ha":316,"o":"m 159 757 l 164 757 l 243 588 l 186 562 l 181 562 l 73 716 z"},"k":{"x_min":0,"x_max":576,"ha":576,"o":"m 98 -20 l 98 713 l 190 757 l 195 757 l 195 336 l 454 557 l 458 557 l 502 517 l 379 412 q 415 400 442 379 q 503 330 503 234 l 503 24 l 410 -20 l 405 -20 l 405 234 q 405 292 374 322 q 344 349 300 349 q 253 349 224 319 q 195 289 195 234 l 195 24 l 103 -20 z"},"u":{"x_min":0,"x_max":552,"ha":552,"o":"m 276 -20 q 184 -13 134 27 q 73 77 73 172 l 73 513 l 166 557 l 171 557 l 171 172 q 171 111 203 84 q 234 58 276 58 q 322 58 352 87 q 381 116 381 172 l 381 513 l 474 557 l 479 557 l 479 137 z"},"]":{"x_min":0,"x_max":422,"ha":422,"o":"m 24 -117 l 24 -112 l 54 -49 l 227 -49 l 227 786 l 24 786 l 24 791 l 54 854 l 324 854 l 324 -73 l 231 -117 z"},"U":{"x_min":0,"x_max":688,"ha":688,"o":"m 344 -20 q 233 -20 164 51 q 98 119 98 225 l 98 712 l 190 757 l 195 757 l 195 225 q 195 159 230 119 q 274 68 344 68 q 416 68 458 119 q 493 161 493 225 l 493 713 l 586 757 l 591 757 l 591 171 z"},"o":{"x_min":0,"x_max":552,"ha":552,"o":"m 276 -20 q 184 -13 134 27 q 73 77 73 172 l 73 400 l 276 557 q 368 550 418 510 q 479 460 479 365 l 479 137 z m 276 58 q 322 58 352 87 q 381 117 381 172 l 381 365 q 381 426 349 453 q 317 479 276 479 q 229 479 200 450 q 171 420 171 365 l 171 172 q 171 111 203 84 q 234 58 276 58 z"},"N":{"x_min":0,"x_max":688,"ha":688,"o":"m 98 -20 l 98 566 l 344 757 q 456 757 525 686 q 591 619 591 513 l 591 25 l 498 -20 l 493 -20 l 493 513 q 493 578 458 619 q 415 669 344 669 q 272 669 230 619 q 195 577 195 513 l 195 24 l 103 -20 z"},"+":{"x_min":0,"x_max":593,"ha":593,"o":"m 341 592 l 341 413 l 520 413 l 520 408 l 480 324 l 341 324 l 341 185 l 257 146 l 252 146 l 252 324 l 73 324 l 73 329 l 113 413 l 252 413 l 252 552 l 336 592 z"},"G":{"x_min":0,"x_max":688,"ha":688,"o":"m 344 -20 q 233 -20 164 51 q 98 119 98 225 l 98 566 l 344 757 q 456 757 525 686 q 591 619 591 513 l 498 469 l 493 469 l 493 513 q 493 578 458 619 q 415 669 344 669 q 273 669 230 619 q 195 578 195 513 l 195 225 q 195 160 230 119 q 273 68 344 68 q 414 68 458 119 q 493 159 493 225 l 493 255 l 316 255 l 316 260 l 344 318 l 591 318 l 591 171 z"},"q":{"x_min":0,"x_max":576,"ha":576,"o":"m 276 58 q 323 58 352 87 q 381 117 381 172 l 381 365 q 381 426 349 453 q 317 479 276 479 q 229 479 200 450 q 171 420 171 365 l 171 172 q 171 114 203 84 q 231 58 276 58 z m 276 -20 q 184 -13 134 27 q 73 76 73 172 l 73 400 l 276 557 q 369 550 418 510 q 479 459 479 365 l 479 -176 l 386 -220 l 381 -220 l 381 62 z"},"d":{"x_min":0,"x_max":576,"ha":576,"o":"m 276 58 q 323 58 352 87 q 381 117 381 172 l 381 365 q 381 422 349 453 q 321 479 276 479 q 229 479 200 450 q 171 420 171 365 l 171 172 q 171 111 203 84 q 234 58 276 58 z m 276 -20 q 184 -13 134 27 q 73 77 73 172 l 73 400 l 276 557 q 338 552 381 533 l 381 713 l 474 757 l 479 757 l 479 137 z"},"1":{"x_min":0,"x_max":349,"ha":349,"o":"m 129 -20 l 129 655 l 10 600 l 10 656 l 222 757 l 227 757 l 227 24 l 134 -20 z"},"5":{"x_min":0,"x_max":649,"ha":649,"o":"m 325 -20 q 211 -20 144 51 q 78 121 78 225 l 171 269 l 176 269 l 176 225 q 176 160 211 119 q 253 68 325 68 q 395 68 438 119 q 474 159 474 225 q 474 288 445 321 q 405 367 324 367 q 257 367 216 345 l 122 409 l 167 713 l 219 737 l 529 737 l 529 732 l 501 674 l 251 674 l 213 412 q 295 412 324 455 q 444 454 505 399 q 571 340 571 226 l 571 171 z"}}}
